<svg id="Capa_1" data-name="Capa 1" xmlns="http://www.w3.org/2000/svg" viewBox="0 0 646.809 779.745"><defs><style>.cls-1{fill:#039;}.cls-2{fill:#353634;}</style></defs><title>logosmvd</title><path class="cls-1" d="M335.638,746.191c81.958-252,117.192-360,117.192-360H571.553L648,673.426l80.574-287.235H846.532l114.894,360h-105.7a1366.072,1366.072,0,0,1-45.7-145.021c-12.169-47.741-20.859-92.624-27.064-133.787Q761.968,542.292,740.976,617.2,722.9,681.7,704.83,746.191H589.936A1252.693,1252.693,0,0,1,528.66,530.7q-6.451-34.054-10.724-66.383c-7.667,40.011-17.064,82.174-28.6,126.128-14.723,56.118-31.077,108.105-48,155.744Z" transform="translate(-325.596 -386.191)"/><path class="cls-2" d="M361.681,1165.936,342.277,787.3H445.426s-6.639,280.851,0,283.149,4.6.255,4.6.255l19.66-46.468L489.6,976.617,579.333,794l126.007-4.149L701.511,1070.7l1.787,3.064h4.085l2.3-4.6q9.4-26.852,20.17-54.383A1582.611,1582.611,0,0,1,839.638,789.34l114.128-.51L751.043,1165.936H625.936l1.277-294.127-3.319.255-2.554,1.787L485.766,1165.936Z" transform="translate(-325.596 -386.191)"/><rect class="cls-2" y="376.34" width="646.809" height="9.532"/></svg>