<?xml version="1.0" standalone="no"?>
<!DOCTYPE svg PUBLIC "-//W3C//DTD SVG 20010904//EN"
 "http://www.w3.org/TR/2001/REC-SVG-20010904/DTD/svg10.dtd">
<svg version="1.0" xmlns="http://www.w3.org/2000/svg"
 width="782.000000pt" height="319.000000pt" viewBox="0 0 782.000000 319.000000"
 preserveAspectRatio="xMidYMid meet">

<g transform="translate(0.000000,319.000000) scale(0.100000,-0.100000)"
fill="#000000" stroke="none">
<path d="M2425 3054 c-48 -8 -193 -53 -253 -80 -30 -13 -58 -24 -63 -24 -5 0
-9 18 -9 39 0 44 -2 45 -89 56 -60 8 -71 1 -71 -50 0 -16 -23 -79 -52 -140
-40 -86 -64 -123 -111 -171 -33 -34 -73 -81 -89 -105 l-29 -43 23 -17 22 -17
-91 -184 c-50 -100 -96 -199 -103 -218 -7 -19 -16 -44 -21 -55 -18 -42 -58
-173 -74 -245 -23 -105 -27 -134 -27 -226 -1 -69 3 -88 22 -120 31 -51 48 -66
89 -81 41 -15 50 -10 33 18 -17 27 -28 164 -13 173 6 4 11 16 11 27 0 27 83
276 109 327 l21 41 34 -20 c46 -27 80 -79 111 -174 14 -44 33 -92 40 -107 8
-14 15 -33 15 -42 0 -27 60 -124 112 -181 83 -91 235 -149 337 -128 l42 8 -63
36 c-133 77 -183 143 -261 344 -19 50 -41 102 -49 116 -28 54 -94 131 -150
176 -61 49 -70 63 -39 63 26 0 214 66 274 97 27 13 51 22 54 19 3 -3 18 3 33
14 16 11 33 20 39 20 6 0 11 5 11 10 0 6 6 10 13 10 14 0 137 84 227 155 162
128 297 288 325 385 1 3 6 14 11 25 5 11 9 52 9 92 0 67 -2 74 -32 105 -18 19
-54 42 -80 52 -48 18 -187 29 -248 20z m217 -105 c27 -27 30 -35 25 -72 -4
-23 -15 -61 -26 -84 -69 -142 -489 -473 -792 -624 -53 -27 -99 -49 -102 -49
-5 0 31 89 81 200 11 25 49 113 85 195 98 223 101 227 173 284 46 36 204 122
265 143 98 35 102 35 187 37 69 1 75 -1 104 -30z"/>
<path d="M4910 2995 c-7 -8 -17 -15 -22 -15 -5 0 -59 -25 -121 -56 -397 -199
-768 -551 -922 -876 -19 -40 -44 -115 -55 -167 -12 -52 -25 -102 -31 -113 -23
-42 5 -226 39 -260 7 -7 12 -18 12 -26 0 -7 4 -11 9 -8 4 3 16 -3 25 -13 14
-15 33 -19 112 -20 89 -2 101 1 167 31 40 18 79 40 87 49 8 8 37 33 63 53 49
39 170 209 197 276 15 37 46 88 79 132 12 14 21 31 21 36 0 5 7 12 15 16 8 3
22 22 32 42 10 20 23 35 28 33 13 -5 12 -8 -23 -109 -73 -211 -91 -287 -93
-395 -1 -61 2 -78 24 -112 22 -34 32 -41 69 -46 24 -3 47 -2 52 3 6 6 9 32 7
60 -2 36 7 78 32 152 49 145 85 280 98 371 6 43 19 104 30 134 10 31 19 64 19
73 0 9 16 33 35 53 37 38 45 74 19 84 -30 11 -270 -47 -413 -101 -106 -40
-155 -70 -200 -126 -35 -44 -38 -55 -15 -64 44 -17 97 -4 224 55 72 34 133 59
136 57 2 -3 -17 -25 -43 -50 -53 -50 -153 -162 -167 -187 -5 -9 -42 -59 -81
-111 -39 -52 -95 -129 -123 -171 -50 -75 -106 -132 -155 -158 -41 -22 -77 3
-114 79 -24 51 -30 75 -28 113 3 36 0 47 -11 47 -8 0 -14 5 -14 10 0 6 9 10
20 10 17 0 20 7 20 39 0 22 3 41 8 43 4 2 14 23 23 48 9 25 20 54 24 64 6 14
5 17 -4 11 -10 -6 -11 -3 -2 14 7 11 15 21 20 21 12 0 51 36 51 48 0 6 4 12 9
14 4 2 26 28 47 59 44 64 106 137 177 209 26 26 47 55 47 64 0 9 11 18 24 22
13 3 34 20 46 37 13 18 36 42 51 55 16 13 29 30 29 37 0 8 8 16 19 20 10 3 35
23 55 45 20 22 48 47 61 56 14 9 23 19 20 23 -2 4 12 13 31 20 22 8 34 19 34
30 0 13 10 20 30 25 17 3 30 12 30 20 0 8 10 18 23 22 12 3 29 12 37 19 23 19
117 38 159 32 43 -5 101 15 101 36 0 19 -38 51 -85 69 -64 26 -91 29 -105 13z"/>
<path d="M3877 2785 c-9 -9 -17 -22 -17 -28 -1 -14 -123 -192 -261 -380 -78
-105 -97 -126 -114 -122 -11 4 -53 10 -94 15 l-75 9 -45 -36 c-78 -63 -225
-215 -284 -293 -116 -155 -147 -274 -90 -339 24 -27 34 -31 80 -31 78 0 153
32 205 88 47 51 128 157 128 168 0 4 26 44 58 88 32 45 71 100 86 124 16 23
31 41 33 38 2 -2 -16 -57 -40 -122 -73 -199 -114 -404 -98 -500 11 -73 77
-155 135 -170 26 -6 28 -5 22 12 -15 37 -18 94 -8 121 6 16 13 70 15 121 2 51
7 95 10 99 4 3 7 18 7 33 0 14 5 31 12 38 9 9 9 12 0 12 -15 0 -6 64 14 95 7
11 26 58 42 105 17 47 66 155 110 240 146 286 234 455 246 475 7 11 21 44 31
73 20 63 15 72 -47 79 -33 4 -49 1 -61 -12z m-506 -712 c-48 -65 -95 -132
-104 -148 -8 -17 -25 -39 -37 -50 -12 -11 -40 -46 -62 -77 -75 -107 -89 -69
-23 62 78 154 230 330 285 330 29 0 29 0 -59 -117z m149 -329 c-22 -97 -37
-127 -26 -51 9 59 40 170 45 156 2 -6 -7 -53 -19 -105z"/>
<path d="M6531 2599 c-117 -30 -276 -122 -412 -238 l-77 -66 -110 4 c-105 3
-110 2 -126 -20 -9 -13 -16 -31 -16 -40 0 -9 -18 -60 -40 -113 -54 -130 -95
-260 -120 -386 -35 -170 -17 -240 60 -240 25 0 49 9 77 31 37 29 43 39 54 98
6 36 30 102 51 146 22 44 53 116 70 160 109 284 522 647 736 648 47 0 50 1 33
13 -31 22 -101 23 -180 3z"/>
<path d="M5244 2282 c-6 -4 -33 -34 -59 -67 -26 -33 -53 -64 -59 -70 -17 -14
-135 -170 -177 -235 -62 -94 -87 -152 -94 -221 -9 -82 8 -130 54 -149 74 -30
239 31 309 116 16 19 48 71 71 117 24 45 46 84 48 87 3 3 2 -17 -2 -45 -10
-68 -7 -213 5 -255 11 -38 29 -53 46 -39 9 7 14 4 19 -10 3 -12 14 -25 23 -30
15 -8 17 -3 14 39 -3 43 17 164 64 380 27 121 83 310 104 352 15 28 -13 42
-68 34 -63 -10 -71 -10 -187 -3 -55 4 -105 3 -111 -1z m189 -78 c3 -3 -18 -43
-47 -87 -29 -45 -70 -114 -91 -152 -116 -215 -224 -358 -245 -325 -5 8 -6 19
-2 25 3 5 8 18 9 27 2 9 16 46 33 83 16 36 30 68 30 71 0 17 108 181 160 243
94 112 129 139 153 115z"/>
<path d="M2473 2143 c-169 -183 -253 -344 -253 -483 0 -72 31 -128 84 -154 34
-17 47 -18 107 -9 106 17 201 68 295 160 132 129 219 262 250 387 14 57 14 66
0 93 -29 57 -146 63 -203 11 l-22 -21 32 -16 c32 -16 32 -17 31 -86 0 -52 -6
-81 -24 -115 -60 -117 -186 -261 -262 -301 -21 -10 -40 -19 -43 -19 -11 0 6
81 37 180 50 156 112 266 197 347 l45 43 -20 20 c-16 16 -38 22 -105 25 l-84
5 -62 -67z"/>
<path d="M3262 1113 c-6 -10 -17 -63 -27 -118 -9 -55 -19 -110 -22 -122 -4
-18 -1 -23 15 -23 23 0 27 11 38 83 8 58 33 93 59 83 18 -7 18 -43 -1 -133 -6
-29 -4 -33 15 -33 26 0 34 30 35 125 l1 70 -43 0 -43 0 3 39 c3 42 -14 59 -30
29z"/>
<path d="M3483 1123 c-7 -2 -13 -14 -13 -25 0 -14 6 -19 23 -16 14 2 22 10 22
22 0 21 -12 28 -32 19z"/>
<path d="M5123 1123 c-7 -2 -13 -14 -13 -25 0 -14 6 -19 23 -16 14 2 22 10 22
22 0 21 -12 28 -32 19z"/>
<path d="M5230 1128 c-1 -2 -11 -61 -24 -133 -13 -71 -22 -133 -19 -137 9 -16
33 -7 38 15 10 40 45 232 45 244 0 10 -39 20 -40 11z"/>
<path d="M2488 1104 c-42 -22 -72 -88 -72 -157 -1 -50 3 -62 23 -78 13 -10 34
-19 48 -19 37 0 83 28 83 50 0 24 -10 25 -48 3 -25 -14 -32 -15 -46 -4 -34 28
-10 147 34 171 17 9 26 8 46 -5 28 -18 44 -13 44 14 0 18 -38 41 -68 41 -9 -1
-29 -8 -44 -16z"/>
<path d="M4165 1098 c-2 -7 -11 -51 -19 -97 -8 -46 -20 -89 -26 -96 -7 -8 -28
-15 -48 -17 -26 -2 -38 -8 -40 -20 -3 -15 4 -18 42 -18 67 0 93 27 110 115 29
147 29 145 6 145 -11 0 -22 -6 -25 -12z"/>
<path d="M2690 1047 c-52 -26 -81 -145 -44 -181 18 -18 66 -21 95 -6 28 16 50
65 51 117 0 37 -4 50 -22 65 -26 21 -46 22 -80 5z m59 -45 c11 -20 6 -52 -11
-89 -23 -47 -68 -34 -68 19 0 67 55 115 79 70z"/>
<path d="M2889 1040 c-25 -20 -23 -22 26 -24 22 -1 30 -6 30 -20 0 -14 -12
-23 -47 -33 -52 -15 -71 -38 -66 -81 3 -26 5 -27 68 -27 l65 0 14 84 c14 83
14 84 -8 102 -30 24 -53 24 -82 -1z m51 -108 c0 -18 -33 -52 -51 -52 -24 0
-26 35 -1 49 20 12 52 14 52 3z"/>
<path d="M3101 1047 c-41 -20 -63 -60 -64 -114 -1 -30 4 -57 12 -66 24 -30
111 -16 111 18 0 17 -14 19 -40 5 -28 -15 -51 12 -43 53 11 60 49 98 68 67 3
-5 13 -10 21 -10 21 0 17 38 -5 50 -25 13 -31 13 -60 -3z"/>
<path d="M3646 1053 c-4 -4 -21 -7 -39 -8 l-32 0 -18 -93 c-11 -52 -16 -96
-13 -99 16 -16 35 12 46 64 16 86 26 105 53 101 21 -3 22 -7 19 -85 -3 -68 0
-83 12 -83 16 0 20 9 37 97 10 55 9 66 -5 88 -16 24 -45 33 -60 18z"/>
<path d="M3830 1047 c-34 -17 -60 -72 -60 -129 0 -40 4 -50 25 -64 21 -14 31
-15 50 -6 21 10 25 9 25 -4 0 -44 -49 -71 -77 -43 -14 14 -33 4 -33 -17 0 -25
45 -39 87 -26 50 15 61 35 84 155 25 135 25 141 -5 133 -14 -3 -28 -2 -31 4
-8 13 -35 12 -65 -3z m60 -42 c13 -16 6 -81 -12 -102 -17 -21 -56 -16 -63 8
-13 40 19 109 50 109 7 0 18 -7 25 -15z"/>
<path d="M4735 1051 c-32 -14 -53 -43 -67 -94 -16 -63 1 -100 49 -105 38 -4
73 13 73 33 0 18 -14 19 -41 3 -17 -11 -22 -10 -34 5 -23 31 -8 46 48 49 l52
3 3 42 c2 33 -1 44 -20 57 -25 18 -34 19 -63 7z m45 -41 c15 -28 5 -40 -36
-40 -39 0 -43 11 -14 40 25 25 37 25 50 0z"/>
<path d="M4955 1050 c-11 -4 -30 -6 -41 -3 -13 3 -23 -1 -27 -10 -10 -27 -30
-178 -24 -184 17 -17 35 12 45 72 12 75 26 97 56 93 23 -3 26 -34 12 -120 -7
-41 -6 -48 8 -48 21 0 34 34 42 113 5 52 3 66 -11 80 -18 19 -30 20 -60 7z"/>
<path d="M3467 1043 c-10 -16 -40 -184 -34 -189 16 -16 36 10 46 58 23 119 24
138 7 138 -8 0 -17 -3 -19 -7z"/>
<path d="M4277 1043 c-3 -5 -11 -43 -18 -85 -10 -63 -10 -79 0 -92 15 -18 62
-21 78 -5 8 8 13 8 17 0 4 -6 13 -11 20 -11 14 0 54 186 42 197 -16 16 -35
-12 -47 -73 -17 -84 -41 -113 -68 -80 -8 9 -8 28 -1 66 14 71 13 90 -4 90 -8
0 -17 -3 -19 -7z"/>
<path d="M4486 978 c10 -101 17 -123 40 -123 14 0 30 22 61 85 46 94 51 113
27 108 -19 -3 -25 -12 -56 -83 l-22 -50 -3 35 c-7 82 -13 100 -34 100 -19 0
-20 -4 -13 -72z"/>
<path d="M5105 1038 c-7 -20 -35 -158 -35 -174 0 -8 8 -14 19 -14 15 0 21 15
35 83 9 45 16 90 16 100 0 19 -28 23 -35 5z"/>
</g>
</svg>
